<?xml version="1.0" encoding="UTF-8"?>
<svg id="Ebene_5" xmlns="http://www.w3.org/2000/svg" version="1.1" viewBox="0 0 363.4 126.9">
  <!-- Generator: Adobe Illustrator 29.8.3, SVG Export Plug-In . SVG Version: 2.1.1 Build 3)  -->
  <defs>
    <style>
      .st0 {
        fill: #fec141;
        stroke: #282828;
        stroke-miterlimit: 10;
        stroke-width: 4px;
      }

      .st1, .st2 {
        isolation: isolate;
      }

      .st3, .st2 {
        fill: #282828;
      }

      .st2 {
        opacity: .5;
      }
    </style>
  </defs>
  <rect class="st2" x="7.2" y="8.2" width="356.1" height="118.7" rx="16" ry="16"/>
  <rect class="st0" x="2" y="2" width="356.1" height="118.7" rx="16" ry="16"/>
  <g class="st1">
    <g class="st1">
      <path class="st3" d="M37.6,99.6c.7-5.2,1.5-10.4,2.3-15.7.8-5.3,1.7-10.3,2.6-15.2.9-4.9,1.7-9.3,2.5-13.3.9-4.3,1.7-8.6,2.6-13,.9-4.4,1.7-8.8,2.7-13.3l17.3-2.3-5.1,22.3c-.9,3.9-1.9,8-2.8,12.5-1,4.4-1.8,8.7-2.6,12.9s-1.4,7.8-1.9,11c1.6-.1,3.4-.2,5.3-.2,1.9,0,3.5,0,5,0,0,1.5.2,3.1.4,4.8s.4,3.1.6,4.3c.2,1.2.3,1.9.3,2h-.7c-.2,0-.5,0-.7,0h-1.6c-2.6,0-5.4.1-8.5.3-3.1.2-6.2.6-9.3,1.1-3.1.5-5.8,1.1-8.2,1.9Z"/>
      <path class="st3" d="M84.1,99.8c-4.3,0-7.9-1.7-10.7-5-2.8-3.4-4.1-8.4-4.1-15.2s.5-7.7,1.4-11.8c.9-4.1,2.2-8.2,3.8-12.2,1.6-4,3.6-7.7,5.7-11.1,3.5-5.5,7.5-10,12-13.5,4.5-3.5,9.3-5.2,14.3-5.2s7,1,9.1,3c2.1,2,3.6,4.6,4.5,7.7.9,3.1,1.3,6.4,1.3,9.7,0,7.8-1.2,15.1-3.6,21.8-2.4,6.7-5.5,12.4-9.3,17.1-3.8,4.8-7.9,8.5-12.2,11-4.3,2.5-8.4,3.8-12.3,3.8ZM89.4,83.5c3,0,5.6-1,7.8-3,2.3-2,4.2-4.5,5.8-7.5,1.6-3.1,2.8-6.3,3.6-9.6.8-3.4,1.2-6.4,1.2-9.1s0-2.2-.3-3.4c-.2-1.2-.6-2.3-1.3-3.2-.7-.9-1.7-1.4-3.1-1.4-3,0-5.8,1.1-8.2,3.3-2.4,2.2-4.5,5-6.1,8.3-1.6,3.4-2.9,6.8-3.6,10.1-.8,3.3-1.2,6.3-1.2,9s.5,2.8,1.5,4.3,2.3,2.2,3.9,2.2Z"/>
    </g>
    <g class="st1">
      <path class="st3" d="M140.4,99.2c.1-1.1.3-2.2.4-3.3.1-1.1.3-2.1.4-3.2l.6-5.5c0-.9.1-1.8.2-2.6,0-.8.1-1.5.2-2.2h-8.6l-3.9,14.2c-1.4.2-3.2.4-5.1.6-2,.2-3.8.4-5.5.6-1.1.1-2.1.3-3.1.4-1,.1-2.1.3-3.1.4l7.8-25.8c.9-3.1,2-6.6,3.2-10.6,1.2-3.9,2.4-8,3.6-12.1,1.2-4.1,2.4-8,3.5-11.7,1.1-3.6,2-6.7,2.6-9.2,4.5-.3,9-.7,13.7-1.2,4.6-.5,9.2-1.1,13.6-1.9-.3,3.7-.6,7.8-.9,12.5s-.6,9.4-.8,14.4c-.2,4.9-.5,9.8-.7,14.6-.1,4.5-.3,9.2-.5,14.1-.2,4.8-.4,9.8-.6,14.8-1,.1-2,.3-3,.4-1,.1-2,.3-3,.4-1.6.3-3.5.6-5.4.9-2,.3-3.7.6-5.3.9ZM136,72.7c.4,0,1.1,0,2.2,0,1.1,0,2.1-.1,3.1-.2,1,0,1.6,0,1.8,0,0-.9.1-2.6.4-5.2.3-2.6.5-5.4.8-8.3.1-1.7.3-3.5.4-5.3.2-1.8.3-3.7.5-5.6l.6-8.6h-1.5c0,0-2.3,8.6-2.3,8.6l-6.1,24.8Z"/>
    </g>
    <g class="st1">
      <path class="st3" d="M165.5,99.9c-.9,0-1.8,0-2.8-.1-.9,0-1.8-.2-2.8-.3l5.2-26.5c.7-3.6,1.4-7.4,2.1-11.5.8-4,1.5-8.1,2.2-12,.7-4,1.4-7.7,1.9-11.1.6-3.4,1-6.3,1.3-8.7,2.8-.5,5.7-1,8.6-1.5,2.9-.5,5.9-.7,8.9-.7,4.9,0,8.7,1,11.5,3,2.8,2,4.9,4.6,6.1,7.9,1.2,3.3,1.9,6.8,1.9,10.7s-.5,7.2-1.5,11c-1,3.8-2.4,7.7-4.2,11.4-1.8,3.8-4,7.3-6.5,10.7-3.9,5.2-8.6,9.5-14.2,12.8-5.6,3.3-11.6,5-18,5ZM177.2,87.5c2.3-1.5,4.5-3.8,6.6-6.9,2.1-3.1,4-6.8,5.9-11.1,1.6-4,2.9-7.8,3.8-11.4.9-3.6,1.4-6.6,1.4-8.9s-.7-4.3-2-5.7c-1.3-1.4-3.5-2.1-6.4-2.1-1.1,5.7-2.1,10.9-3.2,15.7-1.1,4.8-2.1,9.6-3.2,14.5-1,4.9-2,10.2-2.9,16Z"/>
    </g>
    <g class="st1">
      <path class="st3" d="M221.7,99.3c1.1-3.9,2.2-8.3,3.3-13.2,1.1-4.9,2.1-10,3.2-15.1,1-5.2,2-10,2.9-14.6.9-4.2,1.7-8.5,2.5-12.8.8-4.3,1.6-8.7,2.4-13.1l15.4-2.5c-.9,4.4-1.7,8.8-2.6,13.1-.9,4.3-1.7,8.6-2.6,12.9-.9,4.6-1.9,9.5-2.9,14.6-1,5.1-1.9,10.2-2.9,15.1-.9,5-1.8,9.6-2.6,13.9-1.2,0-2.7,0-4.4.2-1.8.2-3.6.4-5.3.6-1.8.2-3.3.4-4.5.6s-1.9.3-1.9.4Z"/>
    </g>
    <g class="st1">
      <path class="st3" d="M254.8,99.5c.7-3.6,1.5-7.2,2.2-10.8.8-3.6,1.5-7.1,2.1-10.6,2.5-12.5,4.5-24.5,6.1-35.9-.7-.1-1.5-.2-2.3-.2-.8,0-1.5,0-2.3,0-1.6.1-3.1,0-4.6-.6,0-.5,0-1.1,0-1.7v-4c0-.7,0-1.4,0-2,0-.7,0-1.5,0-2.3s0-1.7,0-2.5c1.7.1,3.4.2,5.1.3,1.7,0,3.4,0,5.1,0,4.9,0,9.5-.2,14-.5,4.4-.3,8.5-.7,12.3-1.2l-1.1,5.3-.9,4.6c-.3,1.7-.6,3.1-.9,4-.7.2-1.4.4-2.2.5-.7.1-1.4.2-2.2.3-.7,0-1.5.2-2.2.3-.8.1-1.5.3-2.2.4-1,4.9-1.8,9.1-2.4,12.6-.6,3.6-1.2,7-1.7,10.2s-1.1,6.8-1.7,10.7c-1.1,6.6-2.1,13.4-3,20.2l-17.8,2.8Z"/>
    </g>
    <g class="st1">
      <path class="st3" d="M288,101.7c-2,0-3.6-.5-4.9-1.4-1.3-1-2.2-2.1-2.9-3.6-.6-1.4-.9-2.8-.9-4.3,0-2.6.9-4.9,2.6-6.9,1.7-1.9,4.2-2.9,7.2-2.9s6.7.9,8.6,2.7c1.9,1.8,2.9,3.9,2.9,6.2s-1.1,5-3.3,7.1c-2.2,2.1-5.3,3.1-9.4,3.1ZM288.2,76.6c1.1-4.1,2.1-8.1,3.1-12.1,1-4,2-8,3-12,.9-4,1.9-8,2.9-12.1s2.1-8.1,3.1-12.1c3.7-.6,7.2-1.1,10.3-1.5,3.1-.4,5.6-.8,7.6-1.1-3.6,8.3-6.8,16.6-9.7,25-2.9,8.4-5.8,16.8-8.7,25.3-1.9,0-3.8,0-5.7.2-1.9.1-3.8.3-5.7.4Z"/>
    </g>
  </g>
</svg>